# xmcd
#
# Track frame offsets: 
#        150
#        18387
#        38635
#        56500
#        67642
#        84010
#        99990
#        118355
#        135707
#        153950
#        165245
#        180990
#        203440
#        223420
#        237665
#
# Disc length: 3224 seconds
#
# Revision: 0
# Processed by: cddbd v1.5.2PL0 Copyright (c) Steve Scherf et al.
# Submitted via: ExactAudioCopy v0.99pb4
#
DISCID=b80c960f
DTITLE=Clarence Edwards - Swampin'
DYEAR=1900
DGENRE=Blues
TTITLE0=1. Lonely, Lonely Nights
TTITLE1=2. Tried So Hard, No. 1
TTITLE2=3. I'm the One
TTITLE3=4. I Want Somebody
TTITLE4=5. Cry Like a Baby
TTITLE5=6. Sick N' Tired
TTITLE6=7. Chewing Gum
TTITLE7=8. Born With the Blues
TTITLE8=9. Spoonful
TTITLE9=10. Long Distance Call
TTITLE10=11. Rocky Mountains
TTITLE11=12. She Moves With Me
TTITLE12=13. Will the Circle Be Unbroken
TTITLE13=14. 24 Hours of the Day [*]
TTITLE14=15. Jody [*]
EXTD=
EXTT0=
EXTT1=
EXTT2=
EXTT3=
EXTT4=
EXTT5=
EXTT6=
EXTT7=
EXTT8=
EXTT9=
EXTT10=
EXTT11=
EXTT12=
EXTT13=
EXTT14=
PLAYORDER=
